<svg aria-hidden="true" style="width:0;height:0;position:absolute;overflow:hidden" xmlns="http://www.w3.org/2000/svg"><defs><symbol id="icon-search" viewBox="0 0 24 24"><path d="M16.041 15.856a.995.995 0 0 0-.186.186A6.97 6.97 0 0 1 11 18c-1.933 0-3.682-.782-4.95-2.05S4 12.933 4 11s.782-3.682 2.05-4.95S9.067 4 11 4s3.682.782 4.95 2.05S18 9.067 18 11a6.971 6.971 0 0 1-1.959 4.856zm5.666 4.437-3.675-3.675A8.967 8.967 0 0 0 20 11c0-2.485-1.008-4.736-2.636-6.364S13.485 2 11 2 6.264 3.008 4.636 4.636 2 8.515 2 11s1.008 4.736 2.636 6.364S8.515 20 11 20a8.967 8.967 0 0 0 5.618-1.968l3.675 3.675a.999.999 0 1 0 1.414-1.414z"/></symbol><symbol id="icon-heart" viewBox="0 0 35 32"><path fill="#fecb00" style="fill:var(--color1,#fecb00)" d="M31.552 18.346c-.116.002-.233.01-.35.009-.359-.002-.716-.015-1.073-.038s-.714-.056-1.069-.098-.709-.093-1.062-.152a25.485 25.485 0 0 1-2.105-.443 31.995 31.995 0 0 1-1.041-.28 40.911 40.911 0 0 1-2.056-.648c-.679-.232-1.356-.479-2.032-.732s-1.352-.512-2.029-.771c-.676-.259-1.353-.518-2.031-.769s-1.357-.494-2.039-.723c-.341-.114-.683-.224-1.025-.33a35.353 35.353 0 0 0-2.063-.57 25.13 25.13 0 0 0-2.088-.415 19.724 19.724 0 0 0-2.116-.216 18.188 18.188 0 0 0-1.071-.02 17.636 17.636 0 0 0-3.298.361 16.987 16.987 0 0 0-2.133.589c-.076.026-.15.059-.226.087 1.409 4.55 5.199 9.262 11.973 15.042 2.432 2.075 4.557 3.773 4.721 3.773.802 0 7.029-5.31 10.192-8.691 1.587-1.697 2.926-3.356 4.022-4.963z"/><path fill="#0068c2" style="fill:var(--color2,#0068c2)" d="M8.317 0C6.721.014 5.164.372 3.994 1.107.972 3.005-.046 5.061.001 9.167c.015 1.341.226 2.673.643 4.018.076-.027.15-.061.226-.087a16.987 16.987 0 0 1 2.133-.589 17.392 17.392 0 0 1 3.298-.361 18.156 18.156 0 0 1 2.133.1c.353.036.704.082 1.054.136a24.926 24.926 0 0 1 2.088.415 34.46 34.46 0 0 1 2.063.57c.342.106.684.216 1.025.33.682.228 1.361.472 2.039.723s1.355.51 2.031.769c.676.259 1.352.518 2.029.771s1.354.5 2.032.732a43.697 43.697 0 0 0 2.056.648 31.995 31.995 0 0 0 2.09.523c.351.074.703.141 1.056.2s.707.11 1.062.152c.355.042.712.075 1.069.098s.715.036 1.073.038c.116.001.233-.007.35-.009 4.505-6.612 4.829-12.352.748-16.262C30.912.753 29.822.32 27.344.115c-3.873-.321-6.375.808-8.269 3.732-1.509 2.329-1.992 2.52-2.48.982-.189-.595-1.14-1.845-2.115-2.778C13.065.695 10.649-.021 8.317-.001z"/><path style="fill:var(--color3,#000)" opacity=".218" d="M21.689 27.451c7.613-8.093 10.49-13.114 10.5-18.323.007-4.137-1.26-6.453-4.332-7.913L25.376.036l2.586.289c4.755.531 7.77 5.211 6.879 10.678-.672 4.123-3.268 8.132-8.943 13.809-6.573 6.576-9.838 8.623-4.209 2.64zM14.238 5.404C13 3.16 11.961 2.126 10.088 1.276 7.657.173 7.638.141 9.368.131c3.317-.02 8.335 4.48 7.862 7.051-.322 1.752-1.397 1.113-2.992-1.777z"/><path fill="#fff" style="fill:var(--color4,#fff)" opacity=".368" d="M6.444 2.729c-.727-.004-1.504.456-2.448 1.4-2.635 2.375-1.052 11.816.124 5.816.217-.989 1.66-2.366 2.594-3.057C8.875 5.29 9.245 4.718 8.106 3.58c-.561-.561-1.096-.847-1.662-.851zm17.625.131c-1.031-.007-2.121.773-2.858 2.198-1.161 2.245-.507 2.359 1.193 2.359.797 0 1.571-.651 2.486-1.445 1.544-1.341 1.594-1.515.692-2.432-.449-.456-.973-.676-1.514-.68z"/></symbol><symbol id="icon-icon-close" viewBox="0 0 32 32"><path d="m4.94 4.02-.92.92L15.08 16 4.02 27.06l.92.92L16 16.92l11.06 11.06.92-.92L16.92 16 27.98 4.94l-.92-.92L16 15.08z"/></symbol><symbol id="icon-arrow-left" viewBox="0 0 32 32"><path d="m12.586 27.414-10-10a2 2 0 0 1 0-2.828l10-10a2 2 0 1 1 2.828 2.828L8.828 14H28a2 2 0 1 1 0 4H8.828l6.586 6.586c.39.39.586.902.586 1.414s-.195 1.024-.586 1.414a2 2 0 0 1-2.828 0z"/></symbol><symbol id="icon-arrow-right" viewBox="0 0 32 32"><path d="m19.414 27.414 10-10a2 2 0 0 0 0-2.828l-10-10a2 2 0 1 0-2.828 2.828L23.172 14H4a2 2 0 1 0 0 4h19.172l-6.586 6.586c-.39.39-.586.902-.586 1.414s.195 1.024.586 1.414a2 2 0 0 0 2.828 0z"/></symbol></defs></svg>