<svg aria-hidden="true" style="position: absolute; width: 0; height: 0; overflow: hidden;" version="1.1" xmlns="http://www.w3.org/2000/svg" xmlns:xlink="http://www.w3.org/1999/xlink">
<defs>
<symbol id="icon-search" viewBox="0 0 24 24">
<path d="M16.041 15.856c-0.034 0.026-0.067 0.055-0.099 0.087s-0.060 0.064-0.087 0.099c-1.258 1.213-2.969 1.958-4.855 1.958-1.933 0-3.682-0.782-4.95-2.050s-2.050-3.017-2.050-4.95 0.782-3.682 2.050-4.95 3.017-2.050 4.95-2.050 3.682 0.782 4.95 2.050 2.050 3.017 2.050 4.95c0 1.886-0.745 3.597-1.959 4.856zM21.707 20.293l-3.675-3.675c1.231-1.54 1.968-3.493 1.968-5.618 0-2.485-1.008-4.736-2.636-6.364s-3.879-2.636-6.364-2.636-4.736 1.008-6.364 2.636-2.636 3.879-2.636 6.364 1.008 4.736 2.636 6.364 3.879 2.636 6.364 2.636c2.125 0 4.078-0.737 5.618-1.968l3.675 3.675c0.391 0.391 1.024 0.391 1.414 0s0.391-1.024 0-1.414z"></path>
</symbol>
<symbol id="icon-heart" viewBox="0 0 35 32">
<path fill="#fecb00" style="fill: var(--color1, #fecb00)" d="M31.552 18.346c-0.116 0.002-0.233 0.010-0.35 0.009-0.359-0.002-0.716-0.015-1.073-0.038s-0.714-0.056-1.069-0.098c-0.355-0.042-0.709-0.093-1.062-0.152s-0.705-0.126-1.056-0.2c-0.351-0.074-0.701-0.156-1.049-0.243s-0.695-0.181-1.041-0.28c-0.346-0.099-0.69-0.203-1.033-0.311s-0.683-0.221-1.023-0.337c-0.679-0.232-1.356-0.479-2.032-0.732s-1.352-0.512-2.029-0.771c-0.676-0.259-1.353-0.518-2.031-0.769s-1.357-0.494-2.039-0.723c-0.341-0.114-0.683-0.224-1.025-0.33s-0.686-0.206-1.029-0.301c-0.344-0.095-0.688-0.185-1.034-0.269s-0.693-0.161-1.041-0.23c-0.348-0.069-0.697-0.132-1.047-0.185s-0.701-0.099-1.054-0.136c-0.353-0.036-0.706-0.063-1.062-0.080s-0.713-0.024-1.071-0.020c-0.369 0.004-0.738 0.021-1.106 0.050s-0.736 0.068-1.101 0.12c-0.365 0.052-0.729 0.116-1.091 0.191s-0.72 0.162-1.076 0.261c-0.356 0.098-0.708 0.207-1.057 0.328-0.076 0.026-0.15 0.059-0.226 0.087 1.409 4.55 5.199 9.262 11.973 15.042 2.432 2.075 4.557 3.773 4.721 3.773 0.802 0 7.029-5.31 10.192-8.691 1.587-1.697 2.926-3.356 4.022-4.963z"></path>
<path fill="#0068c2" style="fill: var(--color2, #0068c2)" d="M8.317 0c-1.596 0.014-3.153 0.372-4.323 1.107-3.022 1.898-4.040 3.954-3.993 8.060 0.015 1.341 0.226 2.673 0.643 4.018 0.076-0.027 0.15-0.061 0.226-0.087 0.349-0.121 0.701-0.23 1.057-0.328s0.714-0.185 1.076-0.261c0.361-0.075 0.725-0.139 1.091-0.191s0.733-0.092 1.101-0.12c0.368-0.028 0.737-0.045 1.106-0.050 0.359-0.004 0.716 0.003 1.071 0.020s0.709 0.044 1.062 0.080c0.353 0.036 0.704 0.082 1.054 0.136s0.699 0.116 1.047 0.185c0.348 0.069 0.695 0.147 1.041 0.23s0.69 0.173 1.034 0.269c0.344 0.095 0.687 0.195 1.029 0.301s0.684 0.216 1.025 0.33c0.682 0.228 1.361 0.472 2.039 0.723s1.355 0.51 2.031 0.769c0.676 0.259 1.352 0.518 2.029 0.771s1.354 0.5 2.032 0.732c0.339 0.116 0.68 0.229 1.023 0.337s0.687 0.213 1.033 0.311c0.346 0.099 0.693 0.193 1.041 0.28s0.698 0.169 1.049 0.243c0.351 0.074 0.703 0.141 1.056 0.2s0.707 0.11 1.062 0.152c0.355 0.042 0.712 0.075 1.069 0.098s0.715 0.036 1.073 0.038c0.116 0.001 0.233-0.007 0.35-0.009 4.505-6.612 4.829-12.352 0.748-16.262-1.387-1.329-2.477-1.762-4.955-1.967-3.873-0.321-6.375 0.808-8.269 3.732-1.509 2.329-1.992 2.52-2.48 0.982-0.189-0.595-1.14-1.845-2.115-2.778-1.415-1.356-3.831-2.072-6.163-2.052z"></path>
<path fill="#000" style="fill: var(--color3, #000)" opacity="0.217903" d="M21.689 27.451c7.613-8.093 10.49-13.114 10.5-18.323 0.007-4.137-1.26-6.453-4.332-7.913l-2.481-1.179 2.586 0.289c4.755 0.531 7.77 5.211 6.879 10.678-0.672 4.123-3.268 8.132-8.943 13.809-6.573 6.576-9.838 8.623-4.209 2.64zM14.238 5.404c-1.238-2.244-2.277-3.278-4.15-4.128-2.431-1.103-2.45-1.135-0.72-1.145 3.317-0.020 8.335 4.48 7.862 7.051-0.322 1.752-1.397 1.113-2.992-1.777z"></path>
<path fill="#fff" style="fill: var(--color4, #fff)" opacity="0.367623" d="M6.444 2.729c-0.727-0.004-1.504 0.456-2.448 1.4-2.635 2.375-1.052 11.816 0.124 5.816 0.217-0.989 1.66-2.366 2.594-3.057 2.161-1.598 2.531-2.17 1.392-3.308-0.561-0.561-1.096-0.847-1.662-0.851zM24.069 2.86c-1.031-0.007-2.121 0.773-2.858 2.198-1.161 2.245-0.507 2.359 1.193 2.359 0.797 0 1.571-0.651 2.486-1.445 1.544-1.341 1.594-1.515 0.692-2.432-0.449-0.456-0.973-0.676-1.514-0.68z"></path>
</symbol>
<symbol id="icon-icon-close" viewBox="0 0 32 32">
<path d="M4.94 4.020l-0.92 0.92 11.060 11.060-11.060 11.060 0.92 0.92 11.060-11.060 11.060 11.060 0.92-0.92-11.060-11.060 11.060-11.060-0.92-0.92-11.060 11.060z"></path>
</symbol>
<symbol id="icon-arrow-left" viewBox="0 0 32 32">
<path d="M12.586 27.414l-10-10c-0.781-0.781-0.781-2.047 0-2.828l10-10c0.781-0.781 2.047-0.781 2.828 0s0.781 2.047 0 2.828l-6.586 6.586h19.172c1.105 0 2 0.895 2 2s-0.895 2-2 2h-19.172l6.586 6.586c0.39 0.39 0.586 0.902 0.586 1.414s-0.195 1.024-0.586 1.414c-0.781 0.781-2.047 0.781-2.828 0z"></path>
</symbol>
<symbol id="icon-arrow-right" viewBox="0 0 32 32">
<path d="M19.414 27.414l10-10c0.781-0.781 0.781-2.047 0-2.828l-10-10c-0.781-0.781-2.047-0.781-2.828 0s-0.781 2.047 0 2.828l6.586 6.586h-19.172c-1.105 0-2 0.895-2 2s0.895 2 2 2h19.172l-6.586 6.586c-0.39 0.39-0.586 0.902-0.586 1.414s0.195 1.024 0.586 1.414c0.781 0.781 2.047 0.781 2.828 0z"></path>
</symbol>
</defs>
</svg>
